<mxfile host="Electron" modified="2024-02-15T08:35:18.450Z" agent="Mozilla/5.0 (Windows NT 10.0; Win64; x64) AppleWebKit/537.36 (KHTML, like Gecko) draw.io/21.2.8 Chrome/112.0.5615.165 Electron/24.2.0 Safari/537.36" etag="hP2_j_GMQBuVFJvonFeC" version="21.2.8" type="device">
  <diagram name="Page-1" id="2XWkQP5S-hDbL94sL5Vg">
    <mxGraphModel dx="2058" dy="1180" grid="1" gridSize="10" guides="1" tooltips="1" connect="1" arrows="1" fold="1" page="1" pageScale="1" pageWidth="3300" pageHeight="4681" background="#999999" math="0" shadow="0">
      <root>
        <mxCell id="0" />
        <mxCell id="1" parent="0" />
        <mxCell id="APLwThIm-aDqV8bCMrbt-1" value="ProgressBar" style="rounded=0;whiteSpace=wrap;html=1;fontSize=25;fillColor=#dae8fc;strokeColor=#6c8ebf;" parent="1" vertex="1">
          <mxGeometry x="1298" y="140" width="650" height="60" as="geometry" />
        </mxCell>
        <mxCell id="1yFnlk4ov3QVyzY-5gsY-1" value="" style="shape=image;verticalLabelPosition=bottom;labelBackgroundColor=default;verticalAlign=top;aspect=fixed;imageAspect=0;image=data:image/png,iVBORw0KGgoAAAANSUhEUgAAApUAAAFOCAYAAADXQObWAAAAAXNSR0IArs4c6QAAAARnQU1BAACxjwv8YQUAAAAJcEhZcwAADsMAAA7DAcdvqGQAADP5SURBVHhe7d0JnCRlff/xX3fPPXsvG0AQ2At2uUQCHsCKKGq8NWoMKt7xiPFlopCo8QD9i4l4hBgTNVEURcL/j6J/JNFwiRweoKIsC7qwB9cCy7I7s3N1z9F5fk891V3T09Mz09XVVdX9ee9UV9VT1V31PFVd/d3qru7MsccdXxSnWCwNlpmymaWmrMqss1rQzNPVf09EJ4atkqIdgX0WSK6M66dCLCubqhZqC6G2SGb+9/ZmnT6/VzTzMTJVy0ynobJqmFQzAmWVMDljnlYQQ43qXGTrtX27S9EWZeeLzszjNRqGxk2aWLZI3Qttrf3H1qYiIFaGy2rz+CrDZfVQWSUozmee2YV49Qlx13rFsMgYtEfDtse2BJBk1V+OI9b0hcZSy1Spu4VCNe387mznqiNczgiVxxx73PTX3YqwWDtMuiHTq5gr5eqsTYhGaK32i0IMLdQmG4V9D3GZ/nKUcLGsbKpaqOlCtU7dd26dbWJrUr6xvNHpdQyGy+rTy+PTQ2VFYJyZJ/0C1ze9illmMb+5qqrzriGWGJPmVjR97dMuUrRl2ImSZ/qxHlXRSLXE0jp1LzRd2zJ51fQe2N6Wb6wZZyDnnO6Nl0Ll9DOSFYGyImy6P6dyPClCrFGdd01eG9TS/PYJI11tGwdaCO1k+gsaZqq7hZp/x1SpyFILlLw2CobF8mBw3BtWwXlVtWCZOeaYYytOSE4PlJVnJ8ujwaCppo9NU2PSXELctX4VLTJfsaxrLOqsaZs0UPvsBwDmY/pLb5PUvdBY1rbp4mme+u4c3SLLE+2QC4kzwqO9mXuayhxtQqUbNgKBclpoNEPenx2enrkqx6uZc4bZ1XnXEEsMoV3q2S5S1Lop2xHYb6NRPrS3uFgq2jat23R1t2yoTdL87ZnEetqpwVDoFbjy0s20+WYEy2qhctrb3xWBsjTJDHR0dkp/f590dXZJV3eX5HK5SF8hgmuCKlLVPM1fWfYeAHErv+Q2UzxLrUuKVjUOLuJFwzz05OSk5PN5KRTGZWRkRCbGx025t8xggPQGvWFV+hylN+INa6icb6BcvHixLF22VPbsHZHR/LiM5SdkfGLSzQC0qvKTKJWqJeuwVap8zMrHq7ZMzK6e7RFs4/m0/3yXMde2rWq2O7XSjlCtjmmsX6PWOYq6x/uY832K1JaWfaK8np0dHdLT3Wm6LjlgxVLZt29A9g8OmgbxWmQhwdKEymMCH5usHih1hgMOOMCU5GTX7kEpjBMk0U7KT6DUqjzOzadKwfsE5698LN985kF1C9nFGtW2/jLneryFrNsMrbQjtEpdGlGPKNoiqvad/+OG2tVL0rKfVF/Prs4OOWjVCunIZeSxx3a7UtM2tnG8FvIG3XCw3IxkawdK7RdlyeLFZignOx/eS6BEG9Enivdk8aTlYFFFsBpqrqpUTtdxv5uPyuW1g0bWOdjelV2jzOfx5qxTrQdo5MqiMdptm7APLlRhfELuf/gxmZj03p32zjqWM2Hp1iuYXm5GsnYoyBT6M2lfT4vqW956hhJAC9HnuXcsaLyoHrdV+dsiym1SSQPjXKFxznVpx/89oPGatdNjvh7Z/YQsW7rUZsBgJqy2rbxyjw2Vmi69Mr9fnql/Ub/9DCVnKIEUv4DOPA6U1Zq2EPo4fteO0lTv4K5MLqyDNprfAa1Hz1g+vndA+vr77LifCf1g6fXKBz3vjKaGykChm6s0UafpVd56UQ7QeoIvDNVeHALPjTjo4heyCv781bqF4rWydVXbtrW2dz37T1vhyYLWNJYv2Azo50T/rXD/mGB7wQxpSrKlUTPBm8GOlcb1a4P0Km8g+fTgPt8D/GyvrJWPEXzCNFFwsTpcazXmmp4UlU2LxgvuwrN1s6k1DUDbGcuPS3d3t/fy4odH0wuOu1JLizIbNh5tZ7HTXZAsjZv+EYcfIXfd+4gtnc2Sxb3S2THz45lzGZ+YksH9o24MCKvyVdHbm6ubzyuo3j+mV9paq6781ZprvvmqVs1GPbav0euMmWrtrn67z2eeSrXuM6tW29C1GjAtdW3EekZR16jab2GPW9duPkNr7QtHrztcduzcYYYypSu9Z/Rtz2s9Gyr9U5pekDRDbkD7RxxxuGy591E7PpsvXPhJWbturRurzv8uo4ceeby0nOHBPfL+cz8q2WzOKwBC8/azmYJPoNnmSZDg6laqtfpz3W++j1trPqSDvz1n25bV9qOFzDunVtyJtE4LabikacR6RlHXqNpvYY9b124+Q2vtCxvXHSY7duwMBEmvlWaOe/3yZyr9xw8EyvlatnSxHLNhfc3u6KPW2e55pz9Dnv9sr1t1wEqznCn3KECUdIf3u4joU6ZaV4/ZVnOu1Z+tin5ZrfuHXWcky1zbMri95zMvjLmegFi4eHauT378w3L/1jvloW1bSt2DgW6nmfYJM0/S3HL9f8spT3+aG5tJp9183X+5sVoWsi/PPOlY2mzlCbaX2bBhozdoboN9/47zOVN5ydf+WQ49dK18/6atkskWvS6n3ZS86Cnr5KADl8rQ0LCdt7+/X757y3Y7vHrxiLzhze+SXK7Tjlfa/KsbZfnyZW5M5GOf+Ef52je+48aS6W1vfp184mN/58ZEfv2b38lLX3W2G0NzNPnA7z1V5rbQ1ar2uAs7Dngq7zPf9W0EXXYzl4foLPhpVbnh/QeYbYdI686SpnVuxLo2sr5Rt93sj6+B8nkveqXserScb4K7+Irly+XGa6+Ww9cf50rmK9o6aWj84j99Rt77138rt/7il67UU2va7Gqvr3em0n/722sh7duhKv2FfxCyCn24TCYn2weGZMf+/bJzZFAeyA/Ig+P7ZHx8ygRU07l/vlzX/L6i6E9f+xY5ZM1TbKAMhrUk277jfrvO2mko/j/nfdBNAUKq53gV7TFudsEjNNIv1H40352BnSY6cR0IkimXy9lAOTi4v2q3Y+f9dp6Fi3Yf1rCooVHDY/CMZX2BsvG8q7/9s5Tm1u97PdN3g7VMTnlvYa9a2S2ZrgkZmBiU3WN75NFR7yd+MhWP0bN8TPoOGHFj86NnKDWs6ZnANNm7d58bQsvSY8hcx5GFHGf0+VLreTfXdFU53b/PXPdrpGYvD43n79vz2cdn8O+wkDumcYdZcMMggdK0FSuDZaSBsnQcNzfuHWwd9orKpwr9fkPOVPoPdvejD8r2fbtk38ReGZX9UsgM2fKi21ruBKn0LxuSvkXetIXafNc9NljefP1VttO3yJWeDXxo229LXTB8XvzVi0rl/rAvWPb0k0+0nT+vX6b08fwyf5nVyiqd+NTj5SPn/YMdnm0dtfyq737LPobWCSmlu7ffBVWOz0afSP6TaT5mm38hjwFUU20/DvL3vdn2wZJqDzLfMjROow4KjXqcZpj/ujZ+74t+fw4GyyScofQ16O1vz6gJkZ2949LZMy4d3QXpNJ1ltq0fKNWGVU+WdcvWuLH50eC1bOkS+cVtv7bjq484TC6+5DI59o9Pt+HsLW88q/SWs75lrm+VayDUac8/89mlabPRafrY37v84mmP87l/PN9O/5v3vrP0Vrwuc7YypevmB8f/ufYnrlRsuPQfW9/O13X2afh827v+Rk57zktdCVLN393ne2wJc6zW+/r3D/M4QOT8HVSfGMFOpXnnDdaj/Ty0bfO8uiSKbqu15/7QkFDps2HSdJ3d2gVCpWnb4OFi3fK1tpsPDXkazjSABYObvhXuX7Rz2ilPnxbeNBzaC2Re/PwZ097yjve5oTK/zD9z6AdCXbYGRKXL0/GgamUq+JlKpWchfXo2Uh+78vOhur5+YEYLaebrJIESiVfrhbZ9Q1naHbLm2Hl1aJzgW97Bt8Lj1tBQ6QVKL0x2ab/LC5XeleT+K15RCuPjMjo65sZr888E+gFtITTcqYce3mX78xEMhMHl6hXcOqyB0H+ru1pZpZtv/UXpCnad5wtf/Iq9j56pRIsK7u6qcrxSrWlAGsy1j88bwbLxGnWA4UCVFJWfoaz8jGWcGhMqzXEgnx+Vpx+wVk5avl5OXHKknNC/UY7vPcaWe7N4BwvNl1NTU6WLexpBg5u+xe3Tt7317WQ9k6mB8hUvfaGb4n2+cjY6v56Z9M9YVuOHTP+zlqpamU/PlAYv1tHPhKrgOiGl/BfSym421ebVDkiaufbL2bJfQ/bntAbLVn4yt17dJicn7dcGzeaggw608yTNbBflJCVYNiRUaj7ceNST5Z1nnCnvPP358hebXihv3/QyedupL5cNRx0qfX398kd/tEpWrFwhnV2dNlRms407cGgY1M9XBt+21jOcSj/HqGcf/Wlz8b+6yJ/ff+vaf9tau9t+dYd9q7pamQp+pnL9ujWl76nUefy381EP3WeqdQ2ix81gV0uUx9iIqgcgTnE8oaM8UDVCfAe4b377MvnptVdP+8LzYPeLm6618ySJfj/kZy44b0ag9PnB8sJPe9eCxCFzlH75uX+ZuL083PyzL6repeKrjzhCttxX+8vP//q9fyFPPeF4NzZTNpu1nab+0rKM3/12s1z4hS9JNtfhSqKnZxO/9uUvTPt8JtJirgOQv2/VeaAq75rTVXu42eZthMrlRbksoJb5PuUq1fkULEvjTj/XOvuN0sy6NWpZUa5zVI89v8cNvavW1Pi6abAM5qjwaj/WxrWHyfYdO7x20i85D3zRudfTMjtkyzONCJX2y82nvC84XwhdhYwJm5lMQz/aWZN+ZY++Hc2v3CSNt4N6qu1HwekRmWv39VdhYbs5kE7zfcpF9nRN2xNtPgeQZtepUcuLar2jbI/5PXa0ryzN3t71qL2OCw2VDUlzGgr1bKP+3OJCOr1P1IFSz0z6b0X7bzsTKJPG2znLdDxYVjk9AvN57us8aThGAI3m7/vzfQ405HnShOd9UzWkUVoI7dGKMo04UwlU578ozHXwiOnFI6pjWmV1oloOEJW59uH57uMNeWqn5QmUxPVs1DpFUbeo22t+jx/tq08S94lKtdcxljOVQG3ezgcgJYKvM3O9Ltb7upmG19tUS3IDt/LG17r5XfshVKIJqj25NGj6XUyiWnzweNKexxW0guB+XMmfVmv/nuu5FeNTPxqVFWq5CqZIrR0zSnEtN4zG7qeESkRotledhB1so1qdNB5fgEZo2HMqbU8irbjfIR4ceBeucftr1vsApXLXbrsbr1Rv/enAXDigAm2vYU9/XnuSIU3bgX2mftVfu20adNfY2PYNDtueGfcHTceZSkSEYAkASDYNQn6H8AiViJD/P5/KDkDiNOrpyauzQ0Og/RAq0UApOIjOtorkXaBxyFNoMu8Q7v1DfDJHHbXBvR3u3he375f775EX7fdUXnPNNToCAACANnHm854nO7bvMGnR+z5KG9orvpvSG/fCPGcqAQAAEBqhEgAAAKFlSx99cW93u56lb4GXpgMAAKCt+DmwnAnL4dCf5g9xphJAahX1M+Cum5qaSk0XXG8AaBWZI4/a4B3V9ACn/3TMDnsH7NWrj5BruVAHQEIEA1ll509PKv/D7NqfrQOApNALdbZv31E6NnnHKdN3F+wEy2wpoRJA0vlBMXimb3x8XPL5vO0KZljHg9OTKJvNSi6Xk87OTukyXXd3t+10XA/MOl07RcAEELeFhkre/gaQaBoQNShOTEzY4Lh//37ZvXu37HrkEXn0scdk38CAjIyM2GmTk5OJDZRK66Hrqeur663rr/XQ+mi9dJrWM8nBGABmQ6gEkEiVYXJoaMiGr92PPy6DLoC1Aq2H1kfrpfXTehIuAaQRoRJA4miQ0rOOGq4KhYLs3bvXhq6h4WEbtFqR1kvrp/XU+mq9tf5JP/sKAD4XKv3PUHo39vDljdg/AGgWP1DqmbrR0VHZ88QT9q1iLWsHWk+tr9Zb66/tQLAEEAsvEOqB2Y7avvcX4K7HMThTCSAxKgPlvn37ZHh42E1tL1pvrT/BEkBaECoBJEJloBwYGJDRsTE3tT1p/W07ECwBpAChEkAi6GcKNTTp5wgHBgfbPlD6bLA07eF/vrJVP1MKIP0IlQBi55+ltIHSnZlDmX/mlgt3ACQZoRJArPxAqd3Y2JgMj4y4KQjSdtH28duKYAkgaQiVAGKnb+nqZwb1Oxp5e7c6+5VDpn20nWgjAEnkhUr7H97p/+utUgQADeefedNfmckXCq4U1Wj7aDv5bQYAkTNZMBgHvWEtdEOliUXOVAKIj76Fq2fdNCDp5wY5A1ebto+2k7aXDvMWOIAkIVQCiI0GI+30ApSC6TA3bSdtL7/tACApCJUAYuNfpOOffcPcgu3FmUoASUKoBBALDUT+29965i16UzL6yGa5+UdXyuWXXSFXXfdreWB/OoOsf6bSb0MASAJCJYBYTAuVExOuNCojsuVb75ez336+XHL9b2Xr1t/Itd/8vPzHz/aaaUUZ3nmLXHHVHTLkzVyHRjzG/Gl7ESoBJA2hEkBsNBjp27hRv/Vd3HWNfP2KfXLGBd+Ur37mPPnIxz4lF11ysXzoWcvM1El58CfflqvuGXVXNdajEY8xf36bafsBQFLYUKkHQe8/u+Z/vdrzSuwQAETBP8vmn62M0lR+SEYmu2VRX5crUZ3S0zMgt13+Nblm65hMPXqrXPaVr8rltz1up47tul2u/PKn5aMf+oh86l++J3fsccE3f6/8z9f/Xa687R659dLPygVfvFKuvqz6Y0Ql2HbaAUBUSrlQjzelYb+8TA9FnKkEEJtmBEqVe/Jz5GUn7pPvnne+/Ocde6T8Cc6sdPX2SU9XTrK5Hunp65WuXMaU75af/MclsrnreHnBy8+UdXt/IB87999ls/4ceSYv2268Xn56xb/L93evksNWdkln1ceIjt9uBEoASUKoBBCrpryFmztY/uSj/yTnnjokV374bHn9+74o192vCXG5POVlZ8mmwztFDjhRXnn22fLKE1ea8hXynL/7gnz0rS+W057xbHnNO14jR+/bLJsf89d1n+w99A1y3l+/Sd7wuhfL819R7TGixVvfAJKGUAkgFk0/y9Z5sGx69xfk29/6B/mzlb+Si97zfrl4y6ibWCknU4/+Qv7vF8+Xc979Fjn7vV+Xuwv6XZr+OvfLuuPXSJ8bixNnKwEkBaESQKwymWjfKq7UufJ4efXHLpIPbRqUqy+9UXa78qDJ+78nH/2bL8vdq86Ut33oH+Vf//k9ctK0BNkpvb2dbjgezW43AJgLoRJALIKhKJuN9lA0tf8J2TftqzB7ZdmKbilOTHofNtfPKE6W307ee/evZeeBL5Q3veZU2XjYH0nv4APy0IibOJuKx4hSsL0IlwCSglAJIBYahrTTgJSNOBhNPvQ9+bs3/pV86suXyQ/+/5Xy7X/6e/nUD0bkxBc+Q1ZJhyw/cIWM/u7HcvV1P5If/epxWXTwIbLo/h/Jt/7f9XLTNZfIhV+/WzoXuwerauZjREnbS9vNb0MASILcypUrzzP/xfbG/J72TacXjy9bvkze9MY3ehMAoEH0s4Da6fct5vP5SL+rMrf4EDlsyZjs2naP3LNjj0wsO1Ze9lcfkNeduMz+z7r/iGPlsPF75Oe3PyxdR50sf/zUZ8gz1hTk9z//hWzZd5A8/zWnyMpcj6xafZysWbxfnhjKyuLDjpYNB3Z7CzAqH+MpT+p1Uxqvs7NT+vr6pKurS3K5HMESQCS+ecklsm/fXjH/fdUzAd5/ZHWCHTY9f9jvH3nkUXpod0HS+w4i+8Fvr1RWr14t1117rc4OAA2jVy9PTEzIyMiIDA4OytDwsD1goTY9Pi/q75clS5bYYNnR0RH5xwcAtKfnnnmmbN++vUaodOWujCMRgFjYg5Pp9EybnnGL+i3wVqHtFDxDSRAHkBSESgCxCIZK7fSMG1+PU5u2j7aT32aESgBJQqgEEBt7kY7p9DOC3d3d9mM3qMG0j7aTtpffdgCQFByRAMRGz7JpMNKzbhqU9CxclBfspJm2i7aPtpO2l7YbZykBJAmhEkBs/Le/NSgFz1byNvh0/sWT/llKP1gSKgEkSdYeut3x2xv2RoLlABAV/2ylXnyioamnp8deFY4ybQ9tF20fe1ETZykBNIn9P60b1pHycLnc73OmEkCsgm9/a2DS8NTZ0SGFfN7N0d60HbQ9tF20ffyzlNpuAJAkHJUAxM4Plv6Zyv7+fjve7sFS66/toO3hn6kkUAJIKo5MAGLnvwWuF6JocNJu0aJFtmx0dNR+UXo70fpqvbX+2g5+m2j7aBlvfQNIIkIlgETwQ6X/Fnhvb68sXrxYujo7JT82JuPj427O1qb11PpqvbX+2g7+W99+qASAJOLoBCARKs9WapDSnyHUnyPUYDU5MSGjIyMtexGP1kvrp/XU+vo/w+i/7c1ZSgBJR6gEkBh+sPS/XkjDlR8stdPy8UJBRoaHJd8in7fUemh9tF5aP7+uWm+tv7aDlhMoASSdDZXepeCVt+6yca8AAJqiMlhquNILVfSzhcuWLbNvCWt5cWpKhvbvl+GhIRkZGZGCCWX61nFSP3+p3zWpZyN1PXV9db11/bUeWh+tl9ZP66n11XoTKAHEqpQBzUDw64TMUHDY72fWH3mUOdZpgX7hsN7HH/bG16xeLdddd62dHQCaxTsGFW1I1DCmnYbGYOcHSf21Gb9LOr162+80MPpfExTs9K3u4NvdBEoAcXjuc8+Ubdu3m2OQ+Q+/+acD3jFJp1YOm1tCJYAk84Ol9v1wqeN+mPTH/UCZ5GCpQdLva2DU4OiHS39cOz1Qc3YSQNwIlQBakndM8gKmBkftV3be8SvZ/MBY2flB0ztI26M0AMSKUAmgpfnB0TtGlTsNlWkRDI9+p/w+ACTBQkMlV38DSBU/hAXP8OlbxvrZxGqfT0xS56+j/7a3Xwe/TgCQZoRKAKnlh7Fg5we1JHbV1hcAWoUJld5bSV4vOAwAAAAEmZBYyoneRyXdIGcqAQAAEB6hEgAAAKERKgEAABAaoRIAAAChESoBAAAQGqESAAAAoWX9y8Jtz92Uhu114nYMAAAAbcVkQM2C3p+nYjiIM5UAAAAIjVAJAACA0AiVAAAACI1QCQAAgNAIlQAAAAiNUAkAAIDQvFBpvzrIXRnubiquEgcAAEAbKmVCkxerDhs6zJlKAAAAhEaoBAAAQGiESgAAAIRGqAQAAEBohEoAAACEllm//siiYa/a0b53NY/55xXImjWr5brrrrMzA0CrmNz2iExs3SVTD+2RiQcfN/0nZPKBx6U4PCbFkbzpCiKjeW/m3m7J9HWZzvT7eyT35AMkd8gKyR16gGQPWSkd6w+W3JqDvHkBoEU897nPlW3btpu0mDF/ptPCasOms6PrTKgMBsnpwVJD5Rq5nlAJIOUKv9wqE3dsk/E7d8rEnTtkatc+6Tj2MBsQNRjaoKghcdUSExy7JWvCY2ZRj73v1NCYiAma2p/aPSCTD+6RKdNNmjCqQXRi8/2Se9JyyR17uHQed7h0nLBGup623t4XANLqOS5Uamb0gqQdcMOGHfammVtCJYDWVJyYlPGb75bCzVukcNNdMvXogHSdutEEv8Ns8Os87gjJLO1zc4dTHBgxYXWHDayTJmAWbrlbsgcula5Nx5juaOk0y8105NzcAJAOhEoAbW3i3l2Sv/p2GfvhbVIcGpNuF+y0yyzrd3NFq7hv2ARZDbNbJG8CrZ7x7HnJydL94pOkY93Bbi4ASDZCJYC2lL/+d5K/6jYbKLueucEGOO30rew4FYfzpZA7/vPfe+v1UhMwn3O8mwMAkolQCaCt6FvNo5f9VArX3CE9r91kzwh2JvTzjOO/3GrD5djlN0nX806Q3rOeZd+SB4AkWmio5CuFAKTS+G+2yf5zLpZ9r/+cZBf3yvIrPiiLP/G6xAZKpeum66jrml3SZ9dd66B1AYC0I1QCSBW9AGf4S/8l+958kRSnil6Y/PQbpeO4w90cyafruviCs+26ax20LlonrRsApJUNlUX/Rt/6doPeTaAPADEr3HiXDLzpIsn/4Bey+KOvlSWff6t0nrTOTU0fXXetg9ZF66R10zoCQCL4gVD/vJ4b1w9Jlrn4yJlKAOlgz06+9SLJrT9Yln7jfdLz6lPclPTTumidtG5aR60rAKQNoRJAok0+/IQMfuDrMnrpjbLkwrfI4vPOktyTVriprUPrpHXTOmpdtc5adwBIC0IlgMQav+VuGXz3l+2v2Cz913dJz58+001pXVpHravWecDUXb+8HQDSgFAJIJHyP/q1DJxzsXScsNqErHdLp+m3C62rX+fBc79h2wIAko5QCSBxxr57qwz+7Tek91XPlMXnn1X6De52onXWumsbaFtomwBAkhEqASTK6CU32BDV/+4XSv85r3SlC6O/wW2/EP0nm2XysQFXmk7aBtoW2ibaNgCQVCZUli4QdwLj5UIAiJyejdt//mWy+ONnSZ8JUgs1fus9sueMv5e9L/mk7P/gJTLwzn+VQdON/Mc1bo500rbQNtG24YwlgGablhG9P0/5e4YszlQCSAT93OD+8/9TFp3zSul94xmudP4Kt94tgx/8pkxue9SVmGPdWEHGf32fDH3ychn5yo9caTppm2jbaBvxGUsASUSoBBA7vcJZw1KfCU71nKHU/y2PfuN6mdy52xXMNHTBFTJ+x3Y3lk7aNtpG2lZ6ZTwAJAmhEkCs9LsYhy78vnQ//6n1f4ZyywMyYbq5jN9+rxtKL20jbauhz1zJ91gCSBRCJYBYDX/u+5Jd2iuLzq0vUKpJEygnH3jcjc1u8t5dbijdtK0yps207QAgKQiVAGKjP0dY+Nnvpf/9rwj1tUEdGw51Q7Xl1h7khtJN20rbTNuOn3QEkBSESgCxKNx4lwx//vuy6JxXhP5i847jDpfc6gPdWHWZxb3Sccxhbiz9tM207bQNtS0BIG7Z4KXgVmDcG6ycAQDCKU5MyshXfyy9Z5/RsJ9e7HvnC0xyzLixmXr/fJN0nbLBjbUGbTttQ21LbVMAaDT91qCSKpGwVGRm5EwlgKYb/cqP7W9b973DBMEG6T3rWbLkc2+pesay9w3PlkUf+TM31lq0DbUttU0BIE6ESgBNNf6bbfbMmoah3JNWuNLG6HnVKbL0q++Rpf/8F/bM5aKPvlaW/+DvZfGn3uDmaD3ahtqW2qbatgAQF0IlgKYa/fZPpOu5T5GeV5/iShqr48gnSffLny6LPvwa6Xv780J/XjMNtC21TbVtASAuhEoATaM/o6g/M9j7ume5EjSKtqm2bYEvRQcQE0IlgKYZ+c6NJvycLp0nrXMlaBRtU/1c6ehlP3UlANBchEoATVG44U4pXHOHDT6IhgZ2bWNtawBotmz5a4OK0y4LD1wkDgCh5a+6TXpeu8l+pySioW2rbaxtDQDh+VnQ9N13C5VvA7nR4UwlgMhN3LtLxn5oQuVLTnYliIq28ahpa21zAGgmQiWAyOWvvl26nrlBOp+23pUgKtrG3aattc0BoJkIlQAipb/0YkPli09yJYiatrW2Ob+yA6CZCJUAIjV+y90ytX9Uel5CqGwWbWtt8/Gb+XohAM1DqAQQqcJNW6Rr0zGS6et2JYiatnXXpqOlcPMWVwIA0SNUAohU4aa7pNsEHDSXBnltewBoFhsq3VXiRvBrhUo3AFCXwi+3ytSjA/asGZpLg7y2vW4DAKiHlwLNrYuDpXG9dWUeLz9yphJAZCbu2CZdp26UzLJ+V4Jm0TbXttdtAADNQKgEEJnxO3dK7tjD3BiaTdtetwEANAOhEkBkJjfvlE5+QSc22vYTd+5wYwAQLUIlgEhMbntEJh/ea4LNEa4EzaZtP7Vrn90WABA1QiWASExs3SUdxx4mmaV9rgTNpm2v20C3BQBEjVAJIBJTD+2R3JMPcGOIi24D3RYAELVyqCxdGj79a4WmXTEOAPM0+eDjkjuUUBm37CErZcJsCwCoiwuC0/Jg5Ygb50wlgEhMPvSEZA9d6cYQF+9M5RNuDACiQ6gEEInJB/RMJaEybnq2WLcFAESNUAkgEsXhMcmuWurGEJfsqiV2WwBA1AiVACJRHMlLdlGPG0NcMv3ddlsAQNQIlQAiURwpiPR1uzHEJdvf420LAIgYoRJANEY5U5kEGd0GZlsAQNRMqPSuA7e3euMuC3c9AAAAtLFSUixWpkMt86dzphJAVHq7pTjEBSJxm9JtYLYFAESNUAkgEpm+LpniquP4jeTttgCAqBEqAUQi09ctxWE+yxc3PVOp2wIAokaoBBCJTH+PTO0edGOIy9TuAbstACBqhEoAkdCfB9Tf/0a8Jh/cY7cFAEQtW7pkxygP6lAxOAkAFiR7yAp+HjABpjRUmm0BAPWYkQVNwWz5kDOVACLRcegBMvXQHjeGuOjZYv39bwCIGqESQCSyh6zkTGUC6DbQbQEAUSNUAohEx/qDZWLz/VIcGHElaDZte90Gui0AIGqESgCRyK05SLIHL5PxO3e4EjSbtn3uScvttgCAqBEqAUSm47gjTLDZ6cbQbNr2uWMPd2MAEC1CJYDIdB53uExuvt+Nodm07XUbAEAzZL3LwvW22gXiNa4bB4A5dJywRgq33C3FfcOuBM2iba5tr9sAAOo3PSN6Q66sXGxxphJAZLqetl6yBy6V/E1bXAmapWDaXNtetwEANAOhEkCkujYdYwLOXW4MzaKhUtseAJqFUAkgUl2nHW0DTnEk70oQteJwXvImyHdtOtqVAED0CJUAItV52kbJLOqRsR/e7koQtfzVt9s27zx1oysBgOgRKgFEKtORk56XnCwFE3TQHGM/vM22ubY9ADQLoRJA5LpffJIUfnaPjP9yqytBVLSNx3/+e9vmANBMXqgMXBJuBysuEQeAMDrWHWxDjp5BQ7S0jbWttc0BIBQ/D2rfdNPioRv3yrwhzlQCaIrul54sY5ffJBP8wk5ktG21jbWtAaDZCJUAmqL7OcdL1/NOkNHv3OhK0Gijl/3UtrG2NQA0G6ESQNP0nvUsG3zGb7/XlaBRtE01sGsbA0AcCJUAmqbr1I3S++pTTfj5qStBo2ibattqGwNAHAiVAJqq5/WnS/6638rYFbe6EoSlbaltqm0LAHEhVAJoqs6nrpG+d7xARr76Y5l8+AlXinppG2pbaptq2wJAXMqhMnCduB0sXycOAA3V984XSHbVUhuGEI62obaltikANJzLgjUjocuMnKkE0HT6Sy96Zm30WzfI2Pd+5kqxUNp22obalvx6DoC4ESoBxKLr9GOk//2vkKHPfl/G79juSjFf2mbadtqG2pYAEDdCJYDY9L/nRdL1zKNk+PPfl+LQmCvFXLSttM207bQNASAJCJUAYtX/gVdIcWBUhi680pVgLtpWU6bNtO0AICkIlQBilXvSCln0t6+U/P/8RoY/S7Cci7aRttWic19h2w4AkoJQCSB2nadulMUf/3MZueQGGfm3/3alqKRto22kbdV12tGuFACSwYbK8mXi7prw0i0ANEf3n5xow9LQZ6+UUROcMJ22ibaNtpG2FQA0y/RMaMa8v2l0nDOVABKj51WnmNB0luw//zLOWAZoW2ibaNtoGwFAEhEqASRK7xvPkCWfebMMmyDFZyy9z1BqW2ibaNsAQFIRKgEkjp6N0xA1+t2fyf6PX9aWXzekdda6axtoW3CGEkDSESoBJJJ+bnDJhW+2X/I98Jf/1lZfkO7XecL0l372LXyGEkAqECoBJJZe4bz0395lf9t64C+/3BY/6ah11LpqnZeYuuuV8QCQBoRKAImm38W45HNvld7Xny6D514s+8+7TCYffsJNbR1aJ62b1lHrqnXmeygBpEkpVNpLw0vXh1deKA4A8dKfI1z29ffJ5NZdMvDmi2TsilvdlPTTumidtG5aR356EUAyBPOgDptuRkQsF3CmEkBqdJ1+jCz95vuk5+VPl6FPXi6D7/+6jN9+r5uaPrruWgeti9ZJ66Z1BIA0IlQCSJVMR0763vMiWfqN95kRkb2v/gfZ/+FvycSdO90cyafruv9Dl9h11zpoXbROWjcASCtCJYBU6nzqGvu5w+XfOUemBke8cPmx78j4L7e6OZJH103XUdd1av+oLLv0A7YOWhcASLvMmrXrioZoZ27E/rPjZqq5Wbt2rdxww/Xe3ACQUIUb7pT8VbfJ2A9vk65nbpCuF58kPS85STJ93W6OeBRH8madbpfC1bdL/mf3SO9LTpbul54sXWcc5+YAgGQ644wz5L77tpm0mNE/05m+/vNGvHEd1LdcdJhQCaCVTNy7S/Ia4EynZwO7Nh0j3ZuONv2jJbOs380VreK+YcnftEUKN91lui2SXdwr3Sbkatex7mA3FwAkG6ESAIzixKSM33K3DXUa7qYeHZCuUzdK7tjDpPO4w013hGSW9rm5wykOjMj4nTtMt1MmN98vBbPc7IFLbaDV79rsPG0jn5cEkDoRhMo1JlTe4D06AKRU4ZdbZeKObS74me7hvdJhAmbuyQdI7tADJHvoStNfab90PLuoR6Sv2+sb+pOJU8NjUhzOy9TuQZl88HGZfOBxmXpoj+1PmCCZPXiZdJigqoG144Q10vW09fa+AJBW5VDpAqV2foAsjXvTbBmhEkA7mtz2iExs3eUFQw2JDz1hA2JRw+NI3nQFkdG8N3Nvt2T6uuznMzP9PTaIZg9ZIR0aRg9ZKR3rD5bcmoO8eQGgRRAqAQAAENpCQyVfKQQAAIDQCJUAAAAIjVAJAACA0AiVAAAACM2ESntFjh2xt6VRvWTHnwIAAIB24uXAQBI0g+Uxb2oQZyoBAAAQGqESAAAAoREqAQAAEBqhEgAAAKERKgEAABAaoRIAAAChZSuuBq8YrZgIAACA9uK+PWhGKnRlXnmRM5UAAAAIj1AJAACA0AiVAAAACI1QCQAAgNAIlQAAAAiNUAkAAIDQZoTKjOt714eXxgAAANCOasTB4KTMmjVri0WTIM2N6eyN7dvOzLB27Rr5yQ03eHMDiNxjh7/dDWEhOtYdLIs+9QY3hlbV9Yyj3BCAqD37jDPkvvvuk0wmY8KjiY/aL3UaKL1hr5y3vwEAANAAhEoAAACERqgEAABAaHymEgAAADPwmUoAAAA0nRcq9ZSkd+NufdPHAAAAAF8wKXKmEgAAAKERKgEAABAaoRIAAAChESoBAAAQGqESAAAAoREqAQAAEFo5VPLtQQAAAAjSfDgjI1YPjZypBAAAQGiESgAAAIRGqAQAAEBohEoAAACERqgEAABAaIRKAAAAhGZDZfnCcG+oNF79inEAAAC0kRmRsLLAjHOmEgAAAKERKgEAABAaoRIAAAChZdasWVucKhZFTGf/2UE3brq169bKT264wc0OIGqFn//eDc1UuGmLjPzL1W6sQjYjyy47x40AranrGUe5IQBRe/YZZ8h9994nmUzGJMaM7XudGdV/wXIzP2cqAQAAEBqhEgAAAKFl9YpwPWVZpiUAAABAkGZE/Yhk9bSYWb1mrf0gpX5+0v6zw2aKK+MzlQAAAO1n5mcqtWc/TWnHs6VyPlMJAACABiFUAgAAIDRCJQAAAEIjVAIAACA0QiUAAABCy+rVOtUuCwcAAABmU86P3hBnKgEAABAaoRIAAAChESoBAAAQGqESAAAAoREqAQAAEBqhEgAAAKFl+TohAAAAVKXfPVniRkxPh6ZNMjhTCQAAgNAIlQAAAAiNUAkAAIDQCJUAAAAIjVAJAACA0AiVAAAACG2WUMkXDQEAALS9apHQlGlxeZL35UKcqQQAAEBohEoAAACERqgEAABAaIRKAAAAhEaoBAAAQGiESgAAAIQ2S6j0Lg33ewAAAGh3s33lpFfOmUoAAACERqgEAABAaIRKAAAAhEaoBAAAQGiESgAAAIRGqAQAAEBohEoAAABUN6+vl/RmIlQCAAAgNEIlAAAAQiNUAgAAIDRCJQAAAEIjVAIAACA0QiUAAABCI1QCAACgJu9Lg2b7fqGivSVUAgAAIDRCJQAAAEIjVAIAACA0QiUAAABCI1QCAAAgNEIlAAAAQrOh0l4gXr4BAAAAqqiWFb0yzlQCAAAgNEIlAAAAQiNUAgAAIDRCJQAAAEIjVAIAACA0QiUAAABCs6GyaAd9Gb5dCAAAANOUoqEZqBYTOVMJAACA0AiVAAAACM2GSu8UZrUTme6tcAAAALQnDYOVgdCMVxZlbYG98T5ZWR4HAABAu9I4WP30YvWgGHj7OzCDu3JHSyYmJ2X37t1eAQAAAFqeZr+JiUk3Nj8uVAYCpQ7aUa8sP5aXP2zdaocBAADQ+jT7jeXH3JjLiabnhjzBETM87UKdimlWvpCXrX/4gxsDAABAq9PsV8gX7LCXCV0yLIXFcmr0p2cDZTNnNL2h/UNy6aXfkQcffNArAwAAQMvSzKfZb2hoKJANlTdSLvI+cel/33m2NIPt6Y2b1fXGx8flkUcekX/50pe8AgAAALQszXya/TQDWiYTulhoeCOl8fIEyS1fseK8wLhVDpgefU99z+N75L777pMNGzbIkiVL3BQAAAC0Aj1DecEFn5brb7he9uzZY8syGgpNZ3s2TVYO2yFveM3adUUpmj/9p+cvZxs2li5dIgcddJC84fWvl/Xr18uRRx4pq1at8iYCAAAgVfQq7z/84Q+ydetW+fall9ozlIMDg97EyvDopUfbt2HTDts5vHnWmlBZLUQWvYIZ5Z2dHbJ40WLp6u6Snu4eyeWyZoqdtYaaE2uq+571LzKE5i80XdWMZW2brk12PaM9tmc87CG69cVQzTZpWaPOmrbNNmn+Ur1A1mw1Fmom6VT92qB8fkzyhYL9DOX4+IQXGu0MLkCWhr1xW6LDdtAr07HM2nUmVJrXhuohUid40/Sf9xco925K/dnY6fWq865xLDOMute37nWtv5IxNE+6tknatEk1MQf76oDZuJfP5gqxyPrvmp56xrFNvLNzTRZikTXbyEyy0wOh0C+z9SyVBadXDpu+PpQOa3/tuvUmI5pXlVKQNKXBYdvX6XZo2vCM/izsfZotxCJr1aWmWKrZBusaRgyLDCOWNgJi4r0MtYE6qxmudWJZaF1i2Q/qbp4Q65qwZdrHtX/BvrkNltmw6Mr1PnaiN2z7wWHtlUKlvpzZnr6smQH9mzFcMV3/eYX2bzbunvWp867tssx6hVrXesWwyDALTdnqIiJxPFfcYRqziaF5wi2yznunaDeIZZ8Nsci617eVlmknmTlM385X6gfLvGE7psN2sGJ6sExDpT1s6nHTBcbZhr2/ct+G0UDZbOz0ZguxyLrXN5ZqtsG6hhHDIsMsNJbVbRdpalx7lG598VQzhqXGssgmLzTE4pq+rqrORYZa1ziWWYsLhN7ZR7ecUkj0xmdMqxi2Y6W+6dbpmUpztC2HR+3ZW6/M9s2A/XN9N583vz+tBu+B6uKW1Fx1LjLUuja5mmla1zBi2X/CSNnq1q9tKtpk9uje+lJWTfsi3GxNXmTa6lj3+qZsmbXubKeYG7teLiR6w9PL7JgO28E5yrxQaQ7x3q3Lf65vbmZMc2Ve3wzZP68/G3eP+tR511DLrFeoajZ5fWNpnnRtk3rFUk9EJ47NaQ/QmI17KUuPGFa36W2UtjrWeddY9j0vsdWl5j3NRFsf/bPLcLULhkQdDpTZsWBZaZo3nFm3Xj9TqaXmpVD7LjS6QtcPTjMD9q9KfzY1Js2l5uPWEmKZ9ap7XUPwt1NTxbDIesWxTdLUPnGJZbu0AXeIRy0xNFEs2yVFu4IXaJqr7m0SalXru3NUi7RtYP+CfdcyNiiWy7yi6dPs1GllIv8LOGOy8bZ+6YgAAAAASUVORK5CYII=;" vertex="1" parent="1">
          <mxGeometry x="1292.5" y="240" width="661" height="334" as="geometry" />
        </mxCell>
      </root>
    </mxGraphModel>
  </diagram>
</mxfile>
